{
    "asset" : {
        "generator" : "Khronos glTF Blender I/O v3.4.50",
        "version" : "2.0"
    },
    "scene" : 0,
    "scenes" : [
        {
            "name" : "Scene",
            "nodes" : [
                1
            ]
        }
    ],
    "nodes" : [
        {
            "mesh" : 0,
            "name" : "woodkatana",
            "translation" : [
                -0.011838092468678951,
                -0.013944474048912525,
                0
            ]
        },
        {
            "children" : [
                0
            ],
            "name" : "woodenkatana_grp",
            "scale" : [
                100,
                100,
                100
            ]
        }
    ],
    "materials" : [
        {
            "alphaCutoff" : 0.5,
            "alphaMode" : "MASK",
            "doubleSided" : true,
            "name" : "woodkatana_mat.001",
            "normalTexture" : {
                "index" : 0
            },
            "pbrMetallicRoughness" : {
                "baseColorTexture" : {
                    "index" : 1
                },
                "metallicRoughnessTexture" : {
                    "index" : 2
                }
            }
        }
    ],
    "meshes" : [
        {
            "name" : "Cylinder.002",
            "primitives" : [
                {
                    "attributes" : {
                        "POSITION" : 0,
                        "TEXCOORD_0" : 1,
                        "NORMAL" : 2
                    },
                    "indices" : 3,
                    "material" : 0
                }
            ]
        }
    ],
    "textures" : [
        {
            "sampler" : 0,
            "source" : 0
        },
        {
            "sampler" : 0,
            "source" : 1
        },
        {
            "sampler" : 0,
            "source" : 2
        }
    ],
    "images" : [
        {
            "mimeType" : "image/png",
            "name" : "WoodKatana_Normal",
            "uri" : "WoodKatana_Normal.png"
        },
        {
            "mimeType" : "image/png",
            "name" : "WoodKatana_BaseColor-woodkatana_mat_opac",
            "uri" : "WoodKatana_BaseColor-woodkatana_mat_opac.png"
        },
        {
            "mimeType" : "image/png",
            "name" : "WoodKatana_Metallic-WoodKatana_Roughness",
            "uri" : "WoodKatana_Metallic-WoodKatana_Roughness.png"
        }
    ],
    "accessors" : [
        {
            "bufferView" : 0,
            "componentType" : 5126,
            "count" : 2091,
            "max" : [
                0.5054227113723755,
                0.2629079222679138,
                0.058895230293273926
            ],
            "min" : [
                -0.48174652457237244,
                0.013944474048912525,
                -0.05889572948217392
            ],
            "type" : "VEC3"
        },
        {
            "bufferView" : 1,
            "componentType" : 5126,
            "count" : 2091,
            "type" : "VEC2"
        },
        {
            "bufferView" : 2,
            "componentType" : 5126,
            "count" : 2091,
            "type" : "VEC3"
        },
        {
            "bufferView" : 3,
            "componentType" : 5123,
            "count" : 9144,
            "type" : "SCALAR"
        }
    ],
    "bufferViews" : [
        {
            "buffer" : 0,
            "byteLength" : 25092,
            "byteOffset" : 0,
            "target" : 34962
        },
        {
            "buffer" : 0,
            "byteLength" : 16728,
            "byteOffset" : 25092,
            "target" : 34962
        },
        {
            "buffer" : 0,
            "byteLength" : 25092,
            "byteOffset" : 41820,
            "target" : 34962
        },
        {
            "buffer" : 0,
            "byteLength" : 18288,
            "byteOffset" : 66912,
            "target" : 34963
        }
    ],
    "samplers" : [
        {
            "magFilter" : 9729,
            "minFilter" : 9987
        }
    ],
    "buffers" : [
        {
            "byteLength" : 85200,
            "uri" : "woodenkatana.bin"
        }
    ]
}
